# xmcd CD database file
#
# Track frame offsets:
#	150
#	25054
#	40945
#	60085
#	79601
#	103917
#	122745
#	142361
#	159881
#	177816
#	206176
#
# Disc length: 4422 seconds
#
# Revision: 0
# Processed by: cddbd v1.5.2PL0 Copyright (c) Steve Scherf et al.
# Submitted via: CDex 1.70beta2
#
DISCID=8f11440b
DTITLE=GORATORY - SEXUAL INTERCORPSE
DYEAR=2013
DGENRE=Brutal Death Metal
TTITLE0=PUS FILLED MAGGOTS
TTITLE1=RETROGRADE DEFECATION
TTITLE2=MUTILATE AND MODIFY
TTITLE3=INTO THE GRINDING MACHINE
TTITLE4=WRESTLING WITH FACES
TTITLE5=INFANT SKIN SUITCASE
TTITLE6=FISTING THE ELDERLY
TTITLE7=ANALLY INJECTED DEATH SPERM (LIVE)
TTITLE8=TOTAL ECLIPSE OF THE FART (LIVE)
TTITLE9=INFANT SKIN SUITCASE (LIVE)
TTITLE10=DATA TRACK
EXTD=YEAR: 2013
EXTT0=
EXTT1=
EXTT2=
EXTT3=
EXTT4=
EXTT5=
EXTT6=
EXTT7=
EXTT8=
EXTT9=
EXTT10=
PLAYORDER=
